HIERARCHY
ROOT Hips
{
	OFFSET -14.64140 90.27770 -84.91600
	CHANNELS 6 Xposition Yposition Zposition Zrotation Xrotation Yrotation
	JOINT Spine
	{
		OFFSET 0.00000 13.20850 -1.60436
		CHANNELS 3 Zrotation Xrotation Yrotation
		JOINT Spine1
		{
			OFFSET 0.00000 8.61716 0.00000
			CHANNELS 3 Zrotation Xrotation Yrotation
			JOINT Spine2
			{
				OFFSET 0.00000 8.61717 0.00000
				CHANNELS 3 Zrotation Xrotation Yrotation
				JOINT Spine3
				{
					OFFSET 0.00000 8.61717 0.00000
					CHANNELS 3 Zrotation Xrotation Yrotation
					JOINT Neck
					{
						OFFSET 0.00000 11.07920 1.10792
						CHANNELS 3 Zrotation Xrotation Yrotation
						JOINT Neck1
						{
							OFFSET 0.00000 7.08032 0.00000
							CHANNELS 3 Zrotation Xrotation Yrotation
							JOINT Head
							{
								OFFSET 0.00000 7.08031 0.00000
								CHANNELS 3 Zrotation Xrotation Yrotation
								End site
								{
									OFFSET 0.00000 0.00000 0.00000
								}
							}
						}
					}
					JOINT RightShoulder
					{
						OFFSET -0.01000 7.91373 5.19711
						CHANNELS 3 Zrotation Xrotation Yrotation
						JOINT RightArm
						{
							OFFSET -18.41580 0.00000 0.00000
							CHANNELS 3 Zrotation Xrotation Yrotation
							JOINT RightForeArm
							{
								OFFSET -29.11090 0.00000 0.00000
								CHANNELS 3 Zrotation Xrotation Yrotation
								JOINT RightHand
								{
									OFFSET -24.65040 0.00000 0.00000
									CHANNELS 3 Zrotation Xrotation Yrotation
									JOINT RightHandThumb1
									{
										OFFSET -5.35114 -0.85590 3.97906
										CHANNELS 3 Zrotation Xrotation Yrotation
										JOINT RightHandThumb2
										{
											OFFSET -4.52789 0.00000 0.00000
											CHANNELS 3 Zrotation Xrotation Yrotation
											JOINT RightHandThumb3
											{
												OFFSET -2.46976 0.00000 0.00000
												CHANNELS 3 Zrotation Xrotation Yrotation
												End site
												{
													OFFSET 0.00000 0.00000 0.00000
												}
											}
										}
									}
									JOINT RightHandIndex1
									{
										OFFSET -14.26970 0.00000 2.88139
										CHANNELS 3 Zrotation Xrotation Yrotation
										JOINT RightHandIndex2
										{
											OFFSET -5.48836 0.00000 0.00000
											CHANNELS 3 Zrotation Xrotation Yrotation
											JOINT RightHandIndex3
											{
												OFFSET -3.01859 0.00000 0.00000
												CHANNELS 3 Zrotation Xrotation Yrotation
												End site
												{
													OFFSET 0.00000 0.00000 0.00000
												}
											}
										}
									}
									JOINT RightHandMiddle1
									{
										OFFSET -14.26970 0.00000 -0.09147
										CHANNELS 3 Zrotation Xrotation Yrotation
										JOINT RightHandMiddle2
										{
											OFFSET -6.17441 0.00000 0.00000
											CHANNELS 3 Zrotation Xrotation Yrotation
											JOINT RightHandMiddle3
											{
												OFFSET -3.56743 0.00000 0.00000
												CHANNELS 3 Zrotation Xrotation Yrotation
												End site
												{
													OFFSET 0.00000 0.00000 0.00000
												}
											}
										}
									}
									JOINT RightHandRing1
									{
										OFFSET -12.69180 0.00000 -3.06433
										CHANNELS 3 Zrotation Xrotation Yrotation
										JOINT RightHandRing2
										{
											OFFSET -5.62556 0.00000 0.00000
											CHANNELS 3 Zrotation Xrotation Yrotation
											JOINT RightHandRing3
											{
												OFFSET -3.56744 0.00000 0.00000
												CHANNELS 3 Zrotation Xrotation Yrotation
												End site
												{
													OFFSET 0.00000 0.00000 0.00000
												}
											}
										}
									}
									JOINT RightHandPinky1
									{
										OFFSET -11.11390 0.00000 -6.03719
										CHANNELS 3 Zrotation Xrotation Yrotation
										JOINT RightHandPinky2
										{
											OFFSET -4.52789 0.00000 0.00000
											CHANNELS 3 Zrotation Xrotation Yrotation
											JOINT RightHandPinky3
											{
												OFFSET -2.46976 0.00000 0.00000
												CHANNELS 3 Zrotation Xrotation Yrotation
												End site
												{
													OFFSET 0.00000 0.00000 0.00000
												}
											}
										}
									}
								}
							}
						}
					}
					JOINT LeftShoulder
					{
						OFFSET 0.01000 7.91373 5.19711
						CHANNELS 3 Zrotation Xrotation Yrotation
						JOINT LeftArm
						{
							OFFSET 18.41580 0.00000 0.00000
							CHANNELS 3 Zrotation Xrotation Yrotation
							JOINT LeftForeArm
							{
								OFFSET 29.11090 0.00000 0.00000
								CHANNELS 3 Zrotation Xrotation Yrotation
								JOINT LeftHand
								{
									OFFSET 24.65040 0.00000 0.00000
									CHANNELS 3 Zrotation Xrotation Yrotation
									JOINT LeftHandThumb1
									{
										OFFSET 5.35114 -0.85590 3.97906
										CHANNELS 3 Zrotation Xrotation Yrotation
										JOINT LeftHandThumb2
										{
											OFFSET 4.52789 0.00000 0.00000
											CHANNELS 3 Zrotation Xrotation Yrotation
											JOINT LeftHandThumb3
											{
												OFFSET 2.46977 0.00000 0.00000
												CHANNELS 3 Zrotation Xrotation Yrotation
												End site
												{
													OFFSET 0.00000 0.00000 0.00000
												}
											}
										}
									}
									JOINT LeftHandIndex1
									{
										OFFSET 14.26970 0.00000 2.88139
										CHANNELS 3 Zrotation Xrotation Yrotation
										JOINT LeftHandIndex2
										{
											OFFSET 5.48836 0.00000 0.00000
											CHANNELS 3 Zrotation Xrotation Yrotation
											JOINT LeftHandIndex3
											{
												OFFSET 3.01859 0.00000 0.00000
												CHANNELS 3 Zrotation Xrotation Yrotation
												End site
												{
													OFFSET 0.00000 0.00000 0.00000
												}
											}
										}
									}
									JOINT LeftHandMiddle1
									{
										OFFSET 14.26970 0.00000 -0.09147
										CHANNELS 3 Zrotation Xrotation Yrotation
										JOINT LeftHandMiddle2
										{
											OFFSET 6.17440 0.00000 0.00000
											CHANNELS 3 Zrotation Xrotation Yrotation
											JOINT LeftHandMiddle3
											{
												OFFSET 3.56744 0.00000 0.00000
												CHANNELS 3 Zrotation Xrotation Yrotation
												End site
												{
													OFFSET 0.00000 0.00000 0.00000
												}
											}
										}
									}
									JOINT LeftHandRing1
									{
										OFFSET 12.69180 0.00000 -3.06433
										CHANNELS 3 Zrotation Xrotation Yrotation
										JOINT LeftHandRing2
										{
											OFFSET 5.62556 0.00000 0.00000
											CHANNELS 3 Zrotation Xrotation Yrotation
											JOINT LeftHandRing3
											{
												OFFSET 3.56744 0.00000 0.00000
												CHANNELS 3 Zrotation Xrotation Yrotation
												End site
												{
													OFFSET 0.00000 0.00000 0.00000
												}
											}
										}
									}
									JOINT LeftHandPinky1
									{
										OFFSET 11.11390 0.00000 -6.03719
										CHANNELS 3 Zrotation Xrotation Yrotation
										JOINT LeftHandPinky2
										{
											OFFSET 4.52789 0.00000 0.00000
											CHANNELS 3 Zrotation Xrotation Yrotation
											JOINT LeftHandPinky3
											{
												OFFSET 2.46976 0.00000 0.00000
												CHANNELS 3 Zrotation Xrotation Yrotation
												End site
												{
													OFFSET 0.00000 0.00000 0.00000
												}
											}
										}
									}
								}
							}
						}
					}
					JOINT pCube4
					{
						OFFSET 0.00000 10.91090 1.10792
						CHANNELS 3 Zrotation Xrotation Yrotation
						End site
						{
							OFFSET 0.00000 0.00000 0.00000
						}
					}
				}
			}
		}
	}
	JOINT RightUpLeg
	{
		OFFSET -9.98441 0.00000 0.00000
		CHANNELS 3 Zrotation Xrotation Yrotation
		JOINT RightLeg
		{
			OFFSET 0.00000 -42.11790 0.00000
			CHANNELS 3 Zrotation Xrotation Yrotation
			JOINT RightFoot
			{
				OFFSET 0.00000 -45.00020 -0.00001
				CHANNELS 3 Zrotation Xrotation Yrotation
				JOINT RightForeFoot
				{
					OFFSET 0.00000 -3.74820 0.00000
					CHANNELS 3 Zrotation Xrotation Yrotation
					JOINT RightToeBase
					{
						OFFSET 0.00000 0.06325 14.43120
						CHANNELS 3 Zrotation Xrotation Yrotation
						End site
						{
							OFFSET 0.00000 0.00000 0.00000
						}
					}
				}
			}
		}
	}
	JOINT LeftUpLeg
	{
		OFFSET 9.98441 0.00000 0.00000
		CHANNELS 3 Zrotation Xrotation Yrotation
		JOINT LeftLeg
		{
			OFFSET 0.00000 -42.11800 0.00000
			CHANNELS 3 Zrotation Xrotation Yrotation
			JOINT LeftFoot
			{
				OFFSET 0.00000 -45.00070 0.00000
				CHANNELS 3 Zrotation Xrotation Yrotation
				JOINT LeftForeFoot
				{
					OFFSET 0.00000 -3.74824 0.00000
					CHANNELS 3 Zrotation Xrotation Yrotation
					JOINT LeftToeBase
					{
						OFFSET 0.00000 0.06325 14.43110
						CHANNELS 3 Zrotation Xrotation Yrotation
						End site
						{
							OFFSET 0.00000 0.00000 0.00000
						}
					}
				}
			}
		}
	}
}
MOTION
Frames: 4
Frame Time: 0.050000
-0.017270149990051595 -0.015569119608494218 0.010424118457940277 0.005772382870950861 0.020909135607417913 0.029072636053918938 -2.0373025832758973 2.8436642579388627 -0.8505370947058721 -0.9553680633171422 3.8498886964726653 0.35326303081389254 -1.0222444915079312 -1.4431250422334674 -1.3584882892406782 -0.4400570061849658 0.46790974623186976 -0.8394979105010374 -1.1223346074371872 11.678879208536927 2.4898149609207256 -0.05468365862612848 -2.0060249420090104 4.7655036601202365 -0.5030268418060663 -18.698791491205622 0.40826967932659297 -3.4501137736540155 1.437744691837515 -14.43015714763614 73.32050668622648 21.747964421725005 0.36055537334215915 5.21164273132375 5.893014560114644 53.174993746389084 20.34636026713409 -0.14567323500942828 -4.376867136351122 4.514364370164546 -0.1050562911011057 -1.6265406285286812 -0.004334044506538316 -0.011619300552139496 -56.18972076778207 0.024387492466668693 -0.019411982055334634 -56.24368300703224 -38.72068156097614 0.04590573220142145 -0.038569198773483505 -0.02592747868190462 -0.0403652459636136 0.03274720067888246 0.005293146350905819 0.023306929381443898 0.04421363542521927 -36.71953161612687 -0.029441268764963932 0.015611497081986187 -0.027195617529006743 0.009420873675273327 -0.0008706111202462485 -0.004922749219951012 0.031999961425440517 0.010988033792974949 -19.758697399320884 0.010391646655172695 0.038403043914161404 0.022872500314869603 0.005119702909586994 0.011895504353141647 -0.014540331520431223 -0.035097028586300795 0.02720152841627295 24.03893274145161 0.022592358510365063 -0.0029762978935238245 28.86905544927172 -0.03610859938724202 0.020404170297333508 28.87058962412456 0.031149247362083233 0.006630791335024315 6.618540006822645 1.4980009919556672 12.734254036666247 -73.14494378187808 26.03972089210418 -10.8715111178468 -40.534408353591864 2.578320343426831 -78.66959714034152 -11.947332244180672 -1.7646159820670082 1.7004637130639062 -0.47291225148505983 0.10523964959227367 -8.110741482810226 -0.02054379019501674 -0.02510547446121047 44.5693535256176 -0.009595995437795652 0.0363238107687807 44.60611264988791 12.439444040180092 -0.04342859818535301 0.03712138704553984 0.03387719852952855 -0.02104882626805916 -0.024784903043578204 -0.023304231914002445 -0.03603705975714205 0.046730153002637484 11.11725364679863 -0.04184270251915299 -0.0366454583637192 0.008811619679278434 0.0022318837340457934 0.013832186190579306 -0.0420511033219309 0.004327100108914984 0.014765308647509858 4.7764620648030665 0.017599439084863448 2.315078671196497e-05 0.0015236024489279412 -0.030371268455005093 0.010438722630060973 -0.044578608397552955 -0.013092178871458124 0.007029056134269443 -5.609562507772459 -0.024874107372511087 0.015136902003141172 -6.761985323903703 -0.009307872236424842 0.017966087705899424 -6.695303076677421 -0.04943977123077943 -0.016700054141510334 -0.041902995731018085 -0.01865594906586318 0.019772556053872684 7.999551935794983 3.5098956686800227 -19.175197770555346 0.00044907822972186496 10.44271867473163 0.058928742306356294 -5.661712867615404 -15.659095090110172 3.1902909025734183 0.0230899406284447 0.021132961272288447 -0.04538067845370165 0.023145595445104347 4.659300127305949 0.016029458263730083 12.419810220549941 -8.282751404588483 6.8446486367793025 5.7603663484051646e-05 46.406164439465485 0.020278135907175643 -4.333756024588556 -14.779066556208827 -3.8818727699291387 -0.008602213526866435 0.00413868383065848 0.00798093423748379 -0.03364566594889144 -10.772466875755956 -0.039280128011008636 
-0.03741157191828145 -0.030558378752318118 -0.011559880161972451 0.04616611692298192 0.017037774188646864 0.04780361611773508 -2.1469429786071617 2.644553426287336 -0.8934412101587648 -0.9875617152005975 3.845647979750105 0.36782577120163945 -1.0032347846702083 -1.4876736516821492 -1.4011601060404475 -0.46171362783228875 0.43786201954506915 -0.789849196898994 -1.1550567855164984 11.678711321409713 2.742244662081928 -0.03003496373051026 -1.8882437369480958 5.406482149979035 -0.5313598150536154 -18.4539472861198 0.3792330770166237 -3.214054439919244 1.3485539799839659 -14.373669398318116 73.45508732594004 22.407046378135902 -0.2923099773168354 6.433139051421796 6.587144696844717 52.44770866375962 21.211501832419916 -0.10494751000761779 -4.530360741007963 4.5779189829351585 -0.11160655357308485 -1.640469467586082 -0.014886435315780967 -0.036012471489396014 -56.246458973263735 -0.00214732538692285 -0.023950876547476817 -56.272044670467416 -38.76574244433652 0.014940604715186729 0.005760655583310835 -0.028316781833861642 -0.009155018570808617 0.033527487599963476 0.038885498828582755 -0.045317795806805686 -0.025390713084816042 -36.72217299785794 0.0038766008996700876 0.003032035049136481 0.025611500543291303 0.026218810967850985 0.034594695413504045 0.028631627922554824 0.019227594925000233 0.04813456248748848 -19.773212106859752 -0.02892505715867337 -0.00308007513629815 0.03872840096025468 0.003328090699854388 -0.009283533774657205 0.020168081936933424 -0.04621995639020468 -0.015659918182243927 24.036366418553488 0.008799645139996266 -0.011409618000522493 28.88443224749242 -0.006543943328106536 0.01730003269391195 28.85406805971444 -0.02792671843753948 0.043188858958683074 6.641300550546276 1.55257520884689 12.64159194399913 -73.28034684947897 25.733889136421816 -10.994160497028718 -45.03335031422146 2.846420457743661 -82.31720836961543 -12.27322257880929 -2.05047796074722 1.6876233701984467 -0.5192623650681145 0.032048060942292844 -8.162002762508633 0.026130855287444073 -0.00282014342777036 44.55294488372015 -0.013408617524529449 0.041061583068552364 44.53987745798978 12.426540321851485 0.019582404827944284 -0.04290941000962653 -0.0285633405145208 0.04287396434437539 0.009254321291252874 -0.00811685351459372 -0.0002828240226377891 -0.04868345528335543 11.075879336139174 0.024396671882868905 -0.006567959467490857 -0.038498546024347644 0.00818270634072157 0.03931088824184538 0.0022603494110603833 0.0029638754724363166 -0.022990481962629608 4.790020660086236 0.03893308658070263 -0.015668299050524706 -0.027637036300157052 -0.038978003761820985 0.028560295027341684 0.020003911950155464 0.034921545589930235 0.0051759626370322335 -5.558849051561358 0.046437786646652116 -0.020448660225779767 -6.7229335093937115 -0.020601161446007668 0.03030952067212704 -6.748716257312915 0.04812186347631049 0.0008549877687024944 -0.04860791514706071 0.007073918232664323 -0.000328253019718744 8.069310709939474 3.48315845473512 -19.202201853715433 -0.04601699693730742 10.348035942813109 -0.014941775115967611 -5.610333434105358 -15.649288322431389 3.180976288311235 -0.04805641014600009 0.02439167176104605 -0.011580113780267418 0.0030737475337270755 4.715455893013512 -0.0032662196314257714 12.477705063757293 -8.214159045282155 6.901325546508339 -0.014654194279115114 46.35160974269226 0.015769792902045603 -4.286631236338499 -14.770121396599725 -3.8464780815703823 -0.03651275501726526 0.002184221692009975 -0.029888359203779837 0.013244629577660793 -10.78474551076532 0.002542499501931853 
0.025127853235047033 -0.016950134300608394 -0.025468191495070493 0.012339503596795406 0.032515033931097406 0.005352921031784353 -2.398690164200718 2.574440393681267 -0.813869584244127 -0.9232731502545947 3.8106386352773836 0.368375254295618 -1.0001151994848774 -1.5589569497279627 -1.5312885648982608 -0.5185721633661764 0.47553439688202703 -0.8136717765943859 -1.2389241676912324 11.623863815587042 2.9613475781054985 -0.010550833400356978 -1.7980615148255383 5.840413232436346 -0.6217976142153391 -18.12711663315353 0.4957895239675589 -2.9429093774034785 1.3498862742322733 -14.313268433315134 73.34535167905108 22.13255886636105 -0.729342178571759 7.416760669664763 7.073199771097402 51.8382072029448 22.133541216184838 -0.11127863659941636 -4.649307239542602 4.4860862286793886 -0.16394199543008708 -1.6117998447533888 -0.003659505910022356 0.03319171531993081 -56.24755375325607 -0.017029978825655115 -0.011308301189970935 -56.21230276803891 -38.72535585009331 -0.015609290857985025 -0.018870374162068066 -0.007495715555049995 0.043592333466459215 0.04550473066326136 -0.047460880769031724 0.0031070894632063317 -0.006272057452057722 -36.66397977811292 0.02314182582284502 -0.004541882625656055 0.007902660120190138 0.03189434334078959 -0.016052758031055818 -0.005938057763431004 0.0322724114036031 -0.04345963073926222 -19.719031491375155 0.0010724827385888713 -0.02955884584815703 -0.02727471692666722 0.01631268117706004 0.0450776779605174 0.02541501937179058 0.03769904751301565 -0.02623030960724424 24.03620994064743 0.010203821321872827 0.007651989326955876 28.902181767947635 0.021513009282103708 0.03533002957214868 28.888178580856778 -0.018109872822099582 -0.00012423712051441333 6.57225241449075 1.4878166080671773 12.614286446075745 -72.99703005728439 25.368123452152986 -11.038965648191954 -48.565368593863916 2.8214193773642156 -85.16385807851502 -12.476064297720654 -2.110499442658401 1.5885419283436646 -0.4604854803176068 0.053338522759965534 -8.136254663174501 0.04729908806611341 -0.03638590446465154 44.562324551867 -0.03286630028161636 0.018695930312138103 44.58424531875949 12.453341673240576 0.008226056843559334 -0.04944189425771344 0.04124449209814808 0.018520032923459922 -0.03742394709456189 0.007744044048695684 -0.02789467805991918 0.02006781518204542 11.094701450051137 0.01703719448197219 0.004270450215630958 -0.026277602469254237 -0.006540796791746703 -0.04224562972018087 0.032332345949279855 -0.0040311076842065065 0.030719640783839198 4.730239941031979 0.023994006460897277 -0.02719176079848544 -0.02389791345770161 0.022977942954373207 -0.005398298903094695 -0.005664265643978714 -0.014820595936032573 0.03372214355711782 -5.5552980612928895 -0.023494936359347702 0.018262352804841737 -6.710005975779262 -0.004976341541775119 -0.016178948439646266 -6.725395599636861 0.04623489253735074 0.001640031528917932 0.04886428206665472 0.007956994559770588 -0.03963328260772298 8.000655354632661 3.4732375776216493 -19.187881535763736 0.03708989918710577 10.422822580829047 0.06003862823022245 -5.630136309367512 -15.702887864723946 3.190482494970753 -0.01687294681795123 0.04227715572173112 -0.00739014985529674 -0.042724097474949936 4.733690582031748 -0.026654449586894256 12.473389675978318 -8.232454457856711 6.903956208195097 0.0015137426702074212 46.33658061209393 0.024395845128605848 -4.374487110435802 -14.769375254894097 -3.83638439176452 -0.022960967677465426 -0.0139155051297575 0.003737520217215624 -0.004258954235892753 -10.777036885477571 -0.013099346958467257 
0.043826205216528635 0.018627377767544664 0.004182503441575757 -0.031291267654031237 -0.02823501728858281 0.018582187925928924 -2.497594504768763 2.4027940784057087 -0.8132857126253031 -1.0018055620755195 3.765046301858635 0.350610200775291 -1.0156699113913266 -1.5370316608089156 -1.6525086192506868 -0.5340645007221012 0.4301494221934478 -0.8872010630533705 -1.2113082955880483 11.698302441390682 3.0717856736710716 0.019992432208322673 -1.619905132167549 6.140362461631635 -0.6188547699735875 -17.847578665118334 0.48272204443272065 -2.6827562761021935 1.2534812443787506 -14.248438335160413 73.07139688949131 21.978615542804736 -1.026611605141822 7.735053597180288 7.137226595578201 51.35924967777315 22.823458489142364 -0.024974705012988596 -4.569883839914994 4.554435036473206 -0.1108182838409314 -1.568163902830543 0.028030561221029083 -0.04005747306431044 -56.23023964797029 -0.03633460840236618 -0.017210103384137858 -56.23542194135826 -38.75888616704509 0.02652990128727142 -0.04252649181417616 -0.014710114909733236 -0.017648685916588275 -0.032101678009835106 -0.03100619018704438 0.011761291478070559 0.048092057184484394 -36.736188541828284 0.023734641626010966 -0.00045937223073830893 0.032967579679766365 0.006123024263436266 0.02672652460056445 0.0032738831670521594 0.048362437452205746 0.031174550998531125 -19.803214695835454 -0.013193191945202888 -0.02278450286856556 -0.01021126890689021 0.03744846326284809 -0.01918120993482125 0.04173432549777805 0.030075178170067517 -0.01728676607037951 24.08863276877418 -0.030395521900708367 0.04417610496899115 28.886942358884276 -0.009277704544867626 0.01736627426628724 28.846535301595676 -0.027296121671784974 0.008678846610235316 6.492043289368672 1.4663359336956852 12.647427185878476 -72.67937771715931 25.117858552945226 -11.040556586862873 -50.34096401275709 2.4899670116127783 -86.51649375210557 -12.436437675445863 -2.1009534774072263 1.4034115492120778 -0.44106545667907127 0.10349506555328239 -8.170387997050879 -0.04414061685253507 0.022061455466432647 44.547982813068046 -0.00632898867952053 0.014482600832367541 44.552366963235706 12.455337041436032 0.023135902496599105 -0.010604710114356623 -0.027004578206997334 0.04570785029513163 0.007067858124208789 0.013899719178949537 0.03365058565280533 -0.014316323276845165 11.132552168636568 -0.039387741259388466 0.0030916090871641517 0.010505951019555468 -0.010640524279310962 0.03778203071988361 0.04855779001372362 0.005465302337470313 0.0032034386677048336 4.778560183450914 0.007127847677447487 -0.03967120389346636 0.026812388380207424 0.00645128111466042 -0.027477001038944054 0.03844240814624776 0.0018929936670138813 -0.03236150309079062 -5.62804467048371 0.00797559001904846 -0.03253452400753703 -6.688183531402382 0.04721678887663444 -0.031236658906724144 -6.765782674093702 -0.030470967851664033 0.03001548803499631 -0.04268699483053109 -0.016513813684256466 -0.009308839890655169 8.0327938332379 3.471070084143091 -19.201307825645976 -0.02944907097176212 10.394796620391999 0.00489964413739263 -5.668385377768081 -15.66949396729921 3.143925927923193 -0.012491204250647443 -0.015536472475092513 -0.035778230440298354 -0.025481381811607563 4.683021765910175 0.03048815751878325 12.448607672236939 -8.268845521438115 6.882677028964692 -0.04801403577782657 46.405263578424446 0.012215233975199198 -4.32856019304512 -14.715695316378405 -3.8500037477348177 -0.027466657612844152 0.033713747119441334 0.04740825900304662 -0.016739851824347965 -10.77782869470964 -0.02779278122102648 
